<svg xmlns="http://www.w3.org/2000/svg" viewBox="0 0 1400 1400" role="img" aria-label="CastWorks">
  <style>
    .mark { fill: #1F3A34; }
    @media (prefers-color-scheme: dark) {
      .mark { fill: #F4F0E8; }
    }
  </style>
  <g class="mark">
    <g transform="translate(-6.00,1008.00) scale(1,-1)">
      <path d="M406 -15Q334 -15 267.5 9.0Q201 33 150.0 77.0Q99 121 69.5 183.0Q40 245 40 321Q40 392 70.0 454.5Q100 517 153.5 563.5Q207 610 278.0 636.5Q349 663 432 663Q469 663 498.0 659.5Q527 656 554.0 650.0Q581 644 612 634Q625 630 631.5 623.0Q638 616 639 602Q642 576 644.5 548.0Q647 520 648 486Q648 477 640.5 473.0Q633 469 624.0 471.5Q615 474 612 485Q603 518 591.0 544.0Q579 570 556 587Q533 605 497.5 615.0Q462 625 418 625Q362 625 315.0 602.0Q268 579 235.0 539.5Q202 500 183.5 450.0Q165 400 165 346Q165 283 182.5 225.0Q200 167 233.5 122.0Q267 77 315.0 50.5Q363 24 423 24Q495 24 542.0 56.5Q589 89 621 150Q628 164 642.0 164.0Q656 164 656 148Q656 138 652.5 120.5Q649 103 643.0 82.5Q637 62 631 45Q625 32 620.0 27.0Q615 22 601 17Q563 1 511.5 -7.0Q460 -15 406 -15Z" transform="translate(0,0)"/>
      <path d="M229 -26Q227 -26 224.0 -23.5Q221 -21 219 -17L78 330Q71 351 57.0 364.5Q43 378 27 383Q18 386 11.5 390.5Q5 395 5 402Q5 409 13.0 410.5Q21 412 26 412Q43 412 55.5 411.0Q68 410 80.5 408.5Q93 407 108 407Q124 407 138.5 408.5Q153 410 167.0 411.0Q181 412 198 412Q203 412 211.0 410.0Q219 408 219 402Q219 394 211.5 390.5Q204 387 196 383Q186 380 180.5 369.5Q175 359 175 344Q175 329 181 314L252 129Q253 126 256 126Q259 126 260 129L328 289Q332 300 333.5 310.5Q335 321 335 331Q335 349 320.0 362.5Q305 376 288 383Q279 386 272.5 390.0Q266 394 266 402Q266 408 274.0 410.0Q282 412 289 412Q307 412 326.0 409.5Q345 407 368 407Q396 407 417.0 409.5Q438 412 458 412Q464 412 471.5 410.0Q479 408 479 401Q479 394 471.5 390.0Q464 386 456 383Q445 379 435.5 372.0Q426 365 426 348Q426 340 427.5 331.5Q429 323 433 314L503 134Q506 126 509 126Q512 126 515 133L584 298Q588 307 589.5 318.5Q591 330 591 338Q591 355 580.5 366.5Q570 378 558 382Q550 385 542.5 389.0Q535 393 535 401Q535 407 543.0 409.0Q551 411 556 411Q581 411 593.5 409.0Q606 407 629 407Q645 407 653.0 408.0Q661 409 668.5 410.0Q676 411 690 411Q696 411 703.5 409.5Q711 408 711 401Q711 394 704.5 389.5Q698 385 690 382Q673 377 659.0 359.0Q645 341 635 318L497 -17Q493 -25 485 -25Q479 -25 474 -17L363 251Q361 257 358 257Q355 257 353 250L241 -17Q237 -26 229 -26Z" transform="translate(703,0)"/>
    </g>
  </g>
</svg>
